<mxfile host="app.diagrams.net" agent="Mozilla/5.0 (Windows NT 10.0; Win64; x64) AppleWebKit/537.36 (KHTML, like Gecko) Chrome/132.0.0.0 Safari/537.36 Edg/132.0.0.0" version="26.0.11">
  <diagram name="Page-1" id="XB-2y-RMPxdpAkvDRqhX">
    <mxGraphModel grid="1" page="1" gridSize="10" guides="1" tooltips="1" connect="1" arrows="1" fold="1" pageScale="1" pageWidth="850" pageHeight="1100" math="0" shadow="0">
      <root>
        <mxCell id="0" />
        <mxCell id="1" parent="0" />
        <mxCell id="5kgg6Dt5B1u5ZQdmc3mq-1" value="ATM Machine System" style="rounded=1;whiteSpace=wrap;html=1;" vertex="1" parent="1">
          <mxGeometry x="50" y="300" width="130" height="120" as="geometry" />
        </mxCell>
        <mxCell id="5kgg6Dt5B1u5ZQdmc3mq-3" value="" style="endArrow=none;html=1;rounded=0;exitX=0;exitY=0.25;exitDx=0;exitDy=0;entryX=1;entryY=0.25;entryDx=0;entryDy=0;" edge="1" parent="1" source="5kgg6Dt5B1u5ZQdmc3mq-1" target="5kgg6Dt5B1u5ZQdmc3mq-1">
          <mxGeometry width="50" height="50" relative="1" as="geometry">
            <mxPoint x="420" y="410" as="sourcePoint" />
            <mxPoint x="470" y="380" as="targetPoint" />
            <Array as="points" />
          </mxGeometry>
        </mxCell>
        <mxCell id="5kgg6Dt5B1u5ZQdmc3mq-5" value="0.0" style="text;html=1;align=center;verticalAlign=middle;whiteSpace=wrap;rounded=0;" vertex="1" parent="1">
          <mxGeometry x="80" y="300" width="60" height="30" as="geometry" />
        </mxCell>
        <mxCell id="5kgg6Dt5B1u5ZQdmc3mq-6" value="ATM User" style="rounded=1;whiteSpace=wrap;html=1;" vertex="1" parent="1">
          <mxGeometry x="600" y="340" width="120" height="60" as="geometry" />
        </mxCell>
        <mxCell id="5kgg6Dt5B1u5ZQdmc3mq-12" value="" style="endArrow=classic;html=1;rounded=0;entryX=1.013;entryY=0.094;entryDx=0;entryDy=0;entryPerimeter=0;exitX=0;exitY=0.25;exitDx=0;exitDy=0;" edge="1" parent="1" source="5kgg6Dt5B1u5ZQdmc3mq-6" target="5kgg6Dt5B1u5ZQdmc3mq-1">
          <mxGeometry relative="1" as="geometry">
            <mxPoint x="590" y="350" as="sourcePoint" />
            <mxPoint x="420" y="400" as="targetPoint" />
          </mxGeometry>
        </mxCell>
        <mxCell id="5kgg6Dt5B1u5ZQdmc3mq-13" value="Transaction Details" style="edgeLabel;resizable=0;html=1;;align=center;verticalAlign=middle;" connectable="0" vertex="1" parent="5kgg6Dt5B1u5ZQdmc3mq-12">
          <mxGeometry relative="1" as="geometry" />
        </mxCell>
        <mxCell id="5kgg6Dt5B1u5ZQdmc3mq-14" value="" style="endArrow=classic;html=1;rounded=0;entryX=1;entryY=0.5;entryDx=0;entryDy=0;exitX=0;exitY=0.5;exitDx=0;exitDy=0;" edge="1" parent="1" source="5kgg6Dt5B1u5ZQdmc3mq-6" target="5kgg6Dt5B1u5ZQdmc3mq-1">
          <mxGeometry relative="1" as="geometry">
            <mxPoint x="330" y="430" as="sourcePoint" />
            <mxPoint x="430" y="430" as="targetPoint" />
          </mxGeometry>
        </mxCell>
        <mxCell id="5kgg6Dt5B1u5ZQdmc3mq-15" value="User Info" style="edgeLabel;resizable=0;html=1;;align=center;verticalAlign=middle;" connectable="0" vertex="1" parent="5kgg6Dt5B1u5ZQdmc3mq-14">
          <mxGeometry relative="1" as="geometry" />
        </mxCell>
        <mxCell id="5kgg6Dt5B1u5ZQdmc3mq-16" value="" style="endArrow=classic;html=1;rounded=0;entryX=0;entryY=0.833;entryDx=0;entryDy=0;entryPerimeter=0;exitX=1;exitY=0.75;exitDx=0;exitDy=0;" edge="1" parent="1" source="5kgg6Dt5B1u5ZQdmc3mq-1" target="5kgg6Dt5B1u5ZQdmc3mq-6">
          <mxGeometry relative="1" as="geometry">
            <mxPoint x="350" y="430" as="sourcePoint" />
            <mxPoint x="450" y="430" as="targetPoint" />
          </mxGeometry>
        </mxCell>
        <mxCell id="5kgg6Dt5B1u5ZQdmc3mq-17" value="Confirmation Details" style="edgeLabel;resizable=0;html=1;;align=center;verticalAlign=middle;" connectable="0" vertex="1" parent="5kgg6Dt5B1u5ZQdmc3mq-16">
          <mxGeometry relative="1" as="geometry" />
        </mxCell>
      </root>
    </mxGraphModel>
  </diagram>
</mxfile>
